#N canvas 181 208 916 456 10;
#X obj 89 78 tgl 15 0 empty empty empty 17 7 0 10 -262144 -1 -1 0 1
;
#X obj 124 107 hid;
#X obj 70 230 change;
#X obj 70 254 +;
#X obj 124 133 route rel;
#X obj 124 161 route rel_x rel_y;
#X obj 70 309 print x;
#X obj 185 229 change;
#X obj 185 253 +;
#X obj 185 308 print y;
#X msg 191 78 print;
#X obj 97 28 r deviceNum;
#X msg 124 78 open \$1;
#X obj 97 51 t b f;
#X obj 191 28 loadbang;
#X obj 391 238 osc~;
#X obj 391 139 osc~;
#X obj 391 261 dac~;
#X obj 237 308 s intens;
#X obj 122 309 s rate;
#X obj 391 67 r rate;
#X msg 64 28 4;
#X obj 391 162 *~;
#X obj 435 67 r intens;
#X floatatom 435 142 5 0 0 0 - - -;
#X obj 390 213 +~;
#X msg 418 192 220;
#X obj 418 170 loadbang;
#X floatatom 391 117 5 0 0 0 - - -;
#X text 393 27 Some basic FM synthesis for testing;
#X obj 435 116 * 5;
#X obj 70 281 clip 0 1000;
#X obj 185 280 clip 0 1000;
#X obj 391 93 / 30;
#X msg 662 121 \; pd dsp 1;
#X obj 662 67 loadbang;
#X obj 662 94 del 100;
#X text 736 94 Why we add a delay here? Answer : http://puredata.info/docs/faq/why-doesn-t-audio-work-when-i-start-pd-in-nogui-mode
;
#X connect 0 0 1 0;
#X connect 1 0 4 0;
#X connect 2 0 3 0;
#X connect 3 0 31 0;
#X connect 4 0 5 0;
#X connect 5 0 2 0;
#X connect 5 1 7 0;
#X connect 7 0 8 0;
#X connect 8 0 32 0;
#X connect 10 0 1 0;
#X connect 11 0 13 0;
#X connect 12 0 1 0;
#X connect 13 0 0 0;
#X connect 13 1 12 0;
#X connect 14 0 10 0;
#X connect 15 0 17 0;
#X connect 15 0 17 1;
#X connect 16 0 22 0;
#X connect 20 0 33 0;
#X connect 21 0 13 0;
#X connect 22 0 25 0;
#X connect 23 0 30 0;
#X connect 24 0 22 1;
#X connect 25 0 15 0;
#X connect 26 0 25 1;
#X connect 27 0 26 0;
#X connect 28 0 16 0;
#X connect 30 0 24 0;
#X connect 31 0 6 0;
#X connect 31 0 3 1;
#X connect 31 0 19 0;
#X connect 32 0 9 0;
#X connect 32 0 8 1;
#X connect 32 0 18 0;
#X connect 33 0 28 0;
#X connect 35 0 36 0;
#X connect 36 0 34 0;
