#N canvas 390 100 971 595 10;
#X obj 77 247 hid;
#X obj 23 370 change;
#X obj 23 394 +;
#X obj 77 301 route rel_x rel_y;
#X obj 138 369 change;
#X obj 138 393 +;
#X obj 23 473 outlet;
#X obj 138 472 outlet;
#X floatatom 23 448 10 0 0 0 - - -;
#X floatatom 138 448 10 0 0 0 - - -;
#X obj 77 273 route rel key;
#X obj 293 515 outlet;
#X msg 40 218 1;
#X obj 151 155 inlet;
#X obj 52 155 loadbang;
#X obj 50 191 t b b;
#X msg 79 218 open 0x1a7c 0x0068;
#X text 53 5 Convenience object to use the mouse as a controler. Just
replace vendor ID and device ID in the "open" message below. Then when
you create this object \, your mouse will be automatically opened.
;
#X text 52 70 Outlet 1 is X in [0 \, 1000] \; Outlet 2 is Y in [0 \,
1000] \; Outlet 3 name of button clicked and 1 for pressed \, 0 for
released;
#X obj 328 415 change;
#X obj 271 390 unpack s f;
#X obj 244 367 t a a;
#X obj 293 465 spigot;
#X msg 328 439 1;
#X msg 357 439 0;
#X obj 293 491 t a b;
#X text 419 417 [hid] has a small bug : clicks are triggered twice
\, so we filter duplicates out.;
#X obj 23 421 clip 0 10000;
#X obj 138 420 clip 0 10000;
#X connect 0 0 10 0;
#X connect 1 0 2 0;
#X connect 2 0 27 0;
#X connect 3 0 1 0;
#X connect 3 1 4 0;
#X connect 4 0 5 0;
#X connect 5 0 28 0;
#X connect 8 0 6 0;
#X connect 9 0 7 0;
#X connect 10 0 3 0;
#X connect 10 1 21 0;
#X connect 12 0 0 0;
#X connect 13 0 0 0;
#X connect 14 0 15 0;
#X connect 15 0 12 0;
#X connect 15 1 16 0;
#X connect 16 0 0 0;
#X connect 19 0 23 0;
#X connect 20 1 19 0;
#X connect 21 0 22 0;
#X connect 21 1 20 0;
#X connect 22 0 25 0;
#X connect 23 0 22 1;
#X connect 24 0 22 1;
#X connect 25 0 11 0;
#X connect 25 1 24 0;
#X connect 27 0 2 1;
#X connect 27 0 8 0;
#X connect 28 0 5 1;
#X connect 28 0 9 0;
