#N canvas 66 87 450 300 10;
#X obj 63 140 /;
#X obj 63 96 t 1 f;
#X msg 63 118 1;
#X obj 63 74 * 0.001;
#X obj 63 52 inlet;
#X obj 63 163 outlet;
#X text 38 8 Time in milliseconds to the corresponding frequency in
hertz;
#X connect 0 0 5 0;
#X connect 1 0 2 0;
#X connect 1 1 0 1;
#X connect 2 0 0 0;
#X connect 3 0 1 0;
#X connect 4 0 3 0;
