#N canvas 217 172 1067 595 10;
#X obj 219 342 gr.env/exp;
#X obj 49 144 f;
#X obj 152 381 *~;
#X floatatom 209 -80 5 0 0 0 - - -;
#X obj 209 -57 t b f;
#X floatatom 52 224 10 0 0 0 - - -;
#X floatatom 121 224 10 0 0 0 - - -;
#X obj 52 181 +;
#X obj 83 144 gr.rand/meanVar;
#X obj 83 117 bng 15 250 50 0 empty empty empty 17 7 0 10 -262144 -1
-1;
#X obj 20 18 r \$1-WRITEPOS;
#X obj 126 100 r \$1-READPOS;
#X obj 170 122 r \$1-READSPREAD;
#X obj 79 342 gr.in/read \$1-SOURCE;
#X obj 153 409 throw~ \$1-LINEOUT-\$2;
#X obj 164 261 random 4;
#X obj 164 283 + 1;
#X obj 162 242 bng 15 250 50 0 empty empty empty 17 7 0 10 -262144
-1 -1;
#X obj 79 311 pack f f f;
#X obj 209 -102 gr.rand/trigger 100 500 100;
#X connect 0 0 2 1;
#X connect 1 0 7 0;
#X connect 2 0 14 0;
#X connect 3 0 4 0;
#X connect 4 0 1 0;
#X connect 4 1 0 0;
#X connect 4 1 6 0;
#X connect 4 1 9 0;
#X connect 4 1 17 0;
#X connect 5 0 18 0;
#X connect 6 0 18 1;
#X connect 7 0 5 0;
#X connect 8 0 7 1;
#X connect 9 0 8 0;
#X connect 10 0 1 1;
#X connect 11 0 8 1;
#X connect 12 0 8 2;
#X connect 13 0 2 0;
#X connect 15 0 16 0;
#X connect 16 0 18 2;
#X connect 17 0 15 0;
#X connect 18 0 13 0;
#X connect 19 0 3 0;
