#N canvas 65 54 1301 714 10;
#X obj 222 27 gr.utils/mouse;
#X floatatom 185 139 10 0 0 0 - - -;
#X floatatom 100 139 10 0 0 0 - - -;
#X obj 339 156 tgl 15 0 empty empty empty 17 7 0 10 -262144 -1 -1 0
1;
#X obj 384 156 tgl 15 0 empty empty empty 17 7 0 10 -262144 -1 -1 0
1;
#X obj 78 444 drone-mouse-cloud;
#X obj 255 568 dac~;
#X obj 346 445 drone-mouse-cloud;
#X msg 123 290 0;
#X msg 152 290 1;
#X obj 445 420 spigot;
#X obj 395 420 spigot;
#X msg 390 288 0;
#X msg 419 288 1;
#X obj 474 155 tgl 15 0 empty empty empty 17 7 0 10 -262144 -1 -1 0
1;
#X obj 338 62 route btn_0 btn_3 btn_2 btn_4;
#X obj 100 162 s \$0-OFFSET;
#X obj 185 162 s \$0-SPREAD;
#X obj 377 395 r \$0-OFFSET;
#X obj 454 395 r \$0-SPREAD;
#X obj 429 180 s \$0-FREEZE;
#X obj 299 395 r \$0-FREEZE;
#X obj 429 154 bng 15 250 50 0 empty empty empty 17 7 0 10 -262144
-1 -1;
#X obj 429 127 sel 1;
#X obj 345 420 spigot;
#X obj 404 313 f;
#X obj 404 334 tgl 15 0 empty empty empty 17 7 0 10 -262144 -1 -1 0
1;
#X obj 172 420 spigot;
#X obj 122 420 spigot;
#X obj 104 395 r \$0-OFFSET;
#X obj 181 395 r \$0-SPREAD;
#X obj 26 395 r \$0-FREEZE;
#X obj 72 420 spigot;
#X obj 131 313 f;
#X obj 131 334 tgl 15 0 empty empty empty 17 7 0 10 -262144 -1 -1 1
1;
#X obj 132 96 gr.utils/mapVal 0 10000 0 1000;
#X obj 169 117 gr.utils/mapVal 0 10000 -7000 -1000;
#X obj 163 507 freeverb~;
#X obj 96 508 freeverb~;
#X connect 0 0 35 0;
#X connect 0 1 36 0;
#X connect 0 2 15 0;
#X connect 1 0 17 0;
#X connect 2 0 16 0;
#X connect 3 0 9 0;
#X connect 3 0 12 0;
#X connect 4 0 8 0;
#X connect 4 0 13 0;
#X connect 5 0 38 0;
#X connect 5 1 37 0;
#X connect 7 0 6 0;
#X connect 7 1 6 1;
#X connect 8 0 33 0;
#X connect 9 0 33 0;
#X connect 10 0 7 2;
#X connect 11 0 7 1;
#X connect 12 0 25 0;
#X connect 13 0 25 0;
#X connect 14 0 12 0;
#X connect 14 0 8 0;
#X connect 15 0 3 0;
#X connect 15 1 4 0;
#X connect 15 2 23 0;
#X connect 15 3 14 0;
#X connect 18 0 11 0;
#X connect 19 0 10 0;
#X connect 21 0 24 0;
#X connect 22 0 20 0;
#X connect 23 0 22 0;
#X connect 24 0 7 0;
#X connect 25 0 26 0;
#X connect 26 0 10 1;
#X connect 26 0 11 1;
#X connect 26 0 24 1;
#X connect 27 0 5 2;
#X connect 28 0 5 1;
#X connect 29 0 28 0;
#X connect 30 0 27 0;
#X connect 31 0 32 0;
#X connect 32 0 5 0;
#X connect 33 0 34 0;
#X connect 34 0 27 1;
#X connect 34 0 28 1;
#X connect 34 0 32 1;
#X connect 35 0 2 0;
#X connect 36 0 1 0;
#X connect 37 0 6 1;
#X connect 38 0 6 0;
