#N canvas 142 122 1023 622 10;
#X obj 71 83 tgl 15 0 empty empty empty 17 7 0 10 -262144 -1 -1 0 1
;
#X obj 71 104 gr.in/live \$0-SOURCE;
#X obj 71 126 gr.utils/sToMs;
#X floatatom 71 148 10 0 0 0 - - -;
#X obj 71 169 s \$0-WRITEPOS;
#X obj 411 169 s \$0-READPOS;
#X obj 243 169 s \$0-READSPREAD;
#X obj 387 461 drone-mouse-line \$0 1;
#X obj 133 514 *~;
#X obj 148 458 hsl 128 15 0 0.5 0 1 empty empty empty -2 -8 0 10 -262144
-1 -1 12700 1;
#X obj 189 518 *~;
#X obj 225 510 hsl 128 15 0 0.5 0 1 empty empty empty -2 -8 0 10 -262144
-1 -1 12700 1;
#X obj 138 438 catch~ \$0-LINEOUT-1;
#X obj 192 490 catch~ \$0-LINEOUT-2;
#X obj 408 485 drone-mouse-line \$0 1;
#X obj 430 508 drone-mouse-line \$0 1;
#X obj 451 532 drone-mouse-line \$0 1;
#X obj 476 556 drone-mouse-line \$0 1;
#X obj 497 580 drone-mouse-line \$0 1;
#X obj 519 603 drone-mouse-line \$0 1;
#X obj 540 627 drone-mouse-line \$0 1;
#X obj 556 460 drone-mouse-line \$0 2;
#X obj 577 484 drone-mouse-line \$0 2;
#X obj 599 507 drone-mouse-line \$0 2;
#X obj 621 531 drone-mouse-line \$0 2;
#X obj 645 555 drone-mouse-line \$0 2;
#X obj 666 579 drone-mouse-line \$0 2;
#X obj 688 602 drone-mouse-line \$0 2;
#X obj 709 625 drone-mouse-line \$0 2;
#X obj 243 59 inlet;
#X obj 411 59 inlet;
#X obj 71 60 inlet;
#X obj 134 549 outlet~;
#X obj 189 547 outlet~;
#X connect 0 0 1 0;
#X connect 1 0 2 0;
#X connect 2 0 3 0;
#X connect 3 0 4 0;
#X connect 8 0 32 0;
#X connect 9 0 8 1;
#X connect 10 0 33 0;
#X connect 11 0 10 1;
#X connect 12 0 8 0;
#X connect 13 0 10 0;
#X connect 29 0 6 0;
#X connect 30 0 5 0;
#X connect 31 0 0 0;
