#N canvas 65 54 1301 714 10;
#X floatatom 101 78 10 0 0 0 - - -;
#X obj 101 50 gr.in/file \$0-SOUND;
#X msg 101 22 ../sample.wav;
#X obj 54 325 tabread4~ \$0-SOUND;
#X obj 202 324 tabread4~ \$0-SOUND;
#X obj 54 296 gr.in/loop;
#X obj 101 -7 loadbang;
#X obj 335 324 tabread4~ \$0-SOUND;
#X msg 282 46 \; pd dsp 1;
#X obj 282 -8 loadbang;
#X text 356 19 Why we add a delay here? Answer : http://puredata.info/docs/faq/why-doesn-t-audio-work-when-i-start-pd-in-nogui-mode
;
#X obj 282 18 del 100;
#N canvas 66 87 450 300 pan 0;
#X obj 82 44 inlet~;
#X obj 82 260 outlet~;
#X obj 162 259 outlet~;
#X obj 160 44 inlet;
#X obj 83 186 *~;
#X obj 161 186 *~;
#X obj 160 67 nbx 5 14 0 1 0 0 empty empty empty 0 -8 0 10 -262144
-1 -1 0.637795 256;
#X obj 98 146 -;
#X msg 98 124 1;
#X obj 98 103 t b f;
#X floatatom 98 168 5 0 0 0 - - -;
#X connect 0 0 4 0;
#X connect 0 0 5 0;
#X connect 3 0 6 0;
#X connect 4 0 1 0;
#X connect 5 0 2 0;
#X connect 6 0 5 1;
#X connect 6 0 9 0;
#X connect 7 0 10 0;
#X connect 8 0 7 0;
#X connect 9 0 8 0;
#X connect 9 1 7 1;
#X connect 10 0 4 1;
#X restore 335 408 pd pan;
#X obj 350 384 r \$0-PAN3;
#X obj 676 207 s \$0-PAN1;
#X obj 677 296 s \$0-PAN2;
#X obj 678 380 s \$0-PAN3;
#X obj 676 163 ctlin 14;
#X obj 676 185 gr.utils/mapVal 0 127 0 1;
#X obj 677 275 gr.utils/mapVal 0 127 0 1;
#X obj 678 359 gr.utils/mapVal 0 127 0 1;
#X obj 677 252 ctlin 16;
#X obj 678 336 ctlin 18;
#X obj 843 183 gr.utils/mapVal 0 127 0 1;
#X obj 844 269 gr.utils/mapVal 0 127 0 1;
#X obj 844 362 gr.utils/mapVal 0 127 0 1;
#X obj 843 161 ctlin 2;
#X obj 843 205 s \$0-VOL1;
#X obj 844 290 s \$0-VOL2;
#X obj 844 339 ctlin 6;
#X obj 844 383 s \$0-VOL3;
#X obj 681 444 gr.utils/mapVal 0 127 0 1;
#X obj 681 465 s \$0-PAN4;
#X obj 336 364 *~;
#X obj 351 344 r \$0-VOL3;
#N canvas 66 87 450 300 pan 0;
#X obj 82 44 inlet~;
#X obj 82 260 outlet~;
#X obj 162 259 outlet~;
#X obj 160 44 inlet;
#X obj 83 186 *~;
#X obj 161 186 *~;
#X obj 160 67 nbx 5 14 0 1 0 0 empty empty empty 0 -8 0 10 -262144
-1 -1 0.488189 256;
#X obj 98 146 -;
#X msg 98 124 1;
#X obj 98 103 t b f;
#X floatatom 98 168 5 0 0 0 - - -;
#X connect 0 0 4 0;
#X connect 0 0 5 0;
#X connect 3 0 6 0;
#X connect 4 0 1 0;
#X connect 5 0 2 0;
#X connect 6 0 5 1;
#X connect 6 0 9 0;
#X connect 7 0 10 0;
#X connect 8 0 7 0;
#X connect 9 0 8 0;
#X connect 9 1 7 1;
#X connect 10 0 4 1;
#X restore 201 410 pd pan;
#X obj 202 366 *~;
#X obj 219 346 r \$0-VOL2;
#X obj 216 386 r \$0-PAN2;
#N canvas 66 87 450 300 pan 0;
#X obj 82 44 inlet~;
#X obj 82 260 outlet~;
#X obj 162 259 outlet~;
#X obj 160 44 inlet;
#X obj 83 186 *~;
#X obj 161 186 *~;
#X obj 160 67 nbx 5 14 0 1 0 0 empty empty empty 0 -8 0 10 -262144
-1 -1 0.535433 256;
#X obj 98 146 -;
#X msg 98 124 1;
#X obj 98 103 t b f;
#X floatatom 98 168 5 0 0 0 - - -;
#X connect 0 0 4 0;
#X connect 0 0 5 0;
#X connect 3 0 6 0;
#X connect 4 0 1 0;
#X connect 5 0 2 0;
#X connect 6 0 5 1;
#X connect 6 0 9 0;
#X connect 7 0 10 0;
#X connect 8 0 7 0;
#X connect 9 0 8 0;
#X connect 9 1 7 1;
#X connect 10 0 4 1;
#X restore 54 411 pd pan;
#X obj 55 367 *~;
#X obj 468 325 tabread4~ \$0-SOUND;
#N canvas 66 87 450 300 pan 0;
#X obj 82 44 inlet~;
#X obj 82 260 outlet~;
#X obj 162 259 outlet~;
#X obj 160 44 inlet;
#X obj 83 186 *~;
#X obj 161 186 *~;
#X obj 160 67 nbx 5 14 0 1 0 0 empty empty empty 0 -8 0 10 -262144
-1 -1 0.496063 256;
#X obj 98 146 -;
#X msg 98 124 1;
#X obj 98 103 t b f;
#X floatatom 98 168 5 0 0 0 - - -;
#X connect 0 0 4 0;
#X connect 0 0 5 0;
#X connect 3 0 6 0;
#X connect 4 0 1 0;
#X connect 5 0 2 0;
#X connect 6 0 5 1;
#X connect 6 0 9 0;
#X connect 7 0 10 0;
#X connect 8 0 7 0;
#X connect 9 0 8 0;
#X connect 9 1 7 1;
#X connect 10 0 4 1;
#X restore 468 409 pd pan;
#X obj 469 365 *~;
#X obj 483 385 r \$0-PAN4;
#X obj 484 345 r \$0-VOL4;
#X obj 70 347 r \$0-VOL1;
#X obj 69 387 r \$0-PAN1;
#X obj 844 246 ctlin 4;
#X obj 261 512 *~;
#X obj 316 511 *~;
#X obj 383 479 r \$0-MASTER;
#X obj 284 536 dac~;
#X obj 683 519 gr.utils/mapVal 0 127 0 1;
#X obj 683 541 s \$0-MASTER;
#X obj 683 497 ctlin 13;
#X obj 844 446 gr.utils/mapVal 0 127 0 1;
#X obj 844 467 s \$0-VOL4;
#X obj 681 421 ctlin 20;
#X obj 844 423 ctlin 9;
#X obj 202 295 gr.in/loop;
#X obj 335 295 gr.in/loop;
#X obj 468 296 gr.in/loop;
#X obj 1010 158 ctlin 3;
#X obj 1010 180 gr.utils/mapVal 0 127 0 1500;
#X obj 1010 202 s \$0-POS1;
#X obj 54 268 r \$0-POS1;
#X obj 118 268 r \$0-DUR1;
#X obj 202 268 r \$0-POS2;
#X obj 266 268 r \$0-DUR2;
#X obj 335 267 r \$0-POS3;
#X obj 399 267 r \$0-DUR3;
#X obj 468 267 r \$0-POS4;
#X obj 532 267 r \$0-DUR4;
#X obj 1009 268 gr.utils/mapVal 0 127 0 1500;
#X obj 1009 246 ctlin 5;
#X obj 1009 290 s \$0-POS2;
#X obj 1012 359 gr.utils/mapVal 0 127 0 1500;
#X obj 1012 337 ctlin 8;
#X obj 1012 381 s \$0-POS3;
#X obj 1013 444 gr.utils/mapVal 0 127 0 1500;
#X obj 1013 466 s \$0-POS4;
#X obj 1013 422 ctlin 12;
#X obj 1197 157 ctlin 15;
#X obj 1197 201 s \$0-DUR1;
#X obj 1196 289 s \$0-DUR2;
#X obj 1199 380 s \$0-DUR3;
#X obj 1200 465 s \$0-DUR4;
#X obj 1196 245 ctlin 17;
#X obj 1199 336 ctlin 19;
#X obj 1200 421 ctlin 21;
#X obj 1197 179 gr.utils/mapVal 0 127 5 500;
#X obj 1196 267 gr.utils/mapVal 0 127 5 500;
#X obj 1199 358 gr.utils/mapVal 0 127 5 500;
#X obj 1200 443 gr.utils/mapVal 0 127 5 500;
#X connect 1 0 0 0;
#X connect 2 0 1 0;
#X connect 3 0 40 0;
#X connect 4 0 36 0;
#X connect 5 0 3 0;
#X connect 6 0 2 0;
#X connect 7 0 33 0;
#X connect 9 0 11 0;
#X connect 11 0 8 0;
#X connect 12 0 49 0;
#X connect 12 1 50 0;
#X connect 13 0 12 1;
#X connect 17 0 18 0;
#X connect 18 0 14 0;
#X connect 19 0 15 0;
#X connect 20 0 16 0;
#X connect 21 0 19 0;
#X connect 22 0 20 0;
#X connect 23 0 27 0;
#X connect 24 0 28 0;
#X connect 25 0 30 0;
#X connect 26 0 23 0;
#X connect 29 0 25 0;
#X connect 31 0 32 0;
#X connect 33 0 12 0;
#X connect 34 0 33 1;
#X connect 35 0 49 0;
#X connect 35 1 50 0;
#X connect 36 0 35 0;
#X connect 37 0 36 1;
#X connect 38 0 35 1;
#X connect 39 0 49 0;
#X connect 39 1 50 0;
#X connect 40 0 39 0;
#X connect 41 0 43 0;
#X connect 42 0 49 0;
#X connect 42 1 50 0;
#X connect 43 0 42 0;
#X connect 44 0 42 1;
#X connect 45 0 43 1;
#X connect 46 0 40 1;
#X connect 47 0 39 1;
#X connect 48 0 24 0;
#X connect 49 0 52 0;
#X connect 50 0 52 1;
#X connect 51 0 49 1;
#X connect 51 0 50 1;
#X connect 53 0 54 0;
#X connect 55 0 53 0;
#X connect 56 0 57 0;
#X connect 58 0 31 0;
#X connect 59 0 56 0;
#X connect 60 0 4 0;
#X connect 61 0 7 0;
#X connect 62 0 41 0;
#X connect 63 0 64 0;
#X connect 64 0 65 0;
#X connect 66 0 5 0;
#X connect 67 0 5 1;
#X connect 68 0 60 0;
#X connect 69 0 60 1;
#X connect 70 0 61 0;
#X connect 71 0 61 1;
#X connect 72 0 62 0;
#X connect 73 0 62 1;
#X connect 74 0 76 0;
#X connect 75 0 74 0;
#X connect 77 0 79 0;
#X connect 78 0 77 0;
#X connect 80 0 81 0;
#X connect 82 0 80 0;
#X connect 83 0 91 0;
#X connect 88 0 92 0;
#X connect 89 0 93 0;
#X connect 90 0 94 0;
#X connect 91 0 84 0;
#X connect 92 0 85 0;
#X connect 93 0 86 0;
#X connect 94 0 87 0;
