#N canvas 65 54 1301 714 10;
#X floatatom 101 78 10 0 0 0 - - -;
#X obj 101 50 gr.in/file \$0-SOUND;
#X msg 101 22 ../sample.wav;
#X obj 164 188 r \$0-STARTPOS;
#X floatatom 106 349 5 0 0 0 - - -;
#X obj 78 397 tabread4~ \$0-SOUND;
#X floatatom 254 349 5 0 0 0 - - -;
#X obj 226 367 gr.in/loop;
#X obj 226 396 tabread4~ \$0-SOUND;
#X obj 157 445 dac~;
#X obj 280 -8 gr.utils/mouse;
#X floatatom 164 222 5 0 0 0 - - -;
#X obj 78 368 gr.in/loop;
#X obj 280 75 s \$0-STARTPOS;
#X obj 280 24 gr.utils/mapVal 0 1000 0 1600;
#X obj 320 50 gr.utils/mapVal 0 1000 0 400;
#X obj 275 187 r \$0-DUR;
#X obj 320 108 s \$0-DUR;
#X obj 101 -7 loadbang;
#X obj 244 316 - 1;
#X floatatom 387 349 5 0 0 0 - - -;
#X obj 359 367 gr.in/loop;
#X obj 359 396 tabread4~ \$0-SOUND;
#X obj 377 316 - 3;
#X connect 1 0 0 0;
#X connect 2 0 1 0;
#X connect 3 0 11 0;
#X connect 4 0 12 1;
#X connect 5 0 9 0;
#X connect 5 0 9 1;
#X connect 6 0 7 1;
#X connect 7 0 8 0;
#X connect 8 0 9 1;
#X connect 8 0 9 0;
#X connect 10 0 14 0;
#X connect 10 1 15 0;
#X connect 11 0 7 0;
#X connect 11 0 12 0;
#X connect 11 0 21 0;
#X connect 12 0 5 0;
#X connect 14 0 13 0;
#X connect 15 0 17 0;
#X connect 16 0 4 0;
#X connect 16 0 19 0;
#X connect 16 0 23 0;
#X connect 18 0 2 0;
#X connect 19 0 6 0;
#X connect 20 0 21 1;
#X connect 21 0 22 0;
#X connect 22 0 9 1;
#X connect 23 0 20 0;
