#N canvas 395 202 479 394 10;
#X obj 92 79 gr.rand/trigger;
#X floatatom 96 45 5 0 0 0 - - -;
#X floatatom 132 46 5 0 0 0 - - -;
#X floatatom 171 48 5 0 0 0 - - -;
#X floatatom 86 122 5 0 0 0 - - -;
#X obj 86 190 grain;
#X obj 152 16 r MAXDUR;
#X obj 213 16 r DENSITY;
#X obj 282 16 r RATIO;
#X obj 74 16 r MINDUR;
#X obj 84 246 throw~ \$1;
#X obj 341 16 r FREEZE;
#X connect 0 0 4 0;
#X connect 1 0 0 0;
#X connect 2 0 0 1;
#X connect 3 0 0 2;
#X connect 4 0 5 0;
#X connect 5 0 10 0;
#X connect 6 0 2 0;
#X connect 7 0 3 0;
#X connect 8 0 5 1;
#X connect 9 0 1 0;
#X connect 11 0 5 2;
