#N canvas 153 130 833 451 10;
#X obj 132 15 tgl 15 0 empty empty empty 17 7 0 10 -262144 -1 -1 0
1;
#X floatatom 132 80 15 0 0 0 - - -;
#X obj 130 35 gr.in/live \$0-SOUNDIN;
#X obj 76 243 gr.in/read \$0-SOUNDIN;
#X obj 119 120 f;
#X obj 41 -11 inlet;
#X obj 41 27 t b f;
#X floatatom 223 150 5 0 0 0 - - -;
#X obj 125 151 gr.utils/sToMs;
#X obj 114 190 - 2000;
#X obj 151 295 tabread4~ \$0-SOUNDIN;
#X floatatom 139 219 15 0 0 0 - - -;
#X obj 18 296 gr.env/exp;
#X obj 129 341 *~;
#X obj 129 363 outlet~;
#X obj 192 -13 inlet;
#X obj 320 -14 inlet;
#X text -92 -40 Grain length (also triggers the grain);
#X text 191 -39 Ratio (pitch);
#X text 323 -40 Freeze the live sound;
#X connect 0 0 2 0;
#X connect 1 0 4 1;
#X connect 2 0 1 0;
#X connect 3 0 10 0;
#X connect 4 0 8 0;
#X connect 5 0 6 0;
#X connect 6 0 4 0;
#X connect 6 1 3 1;
#X connect 6 1 12 0;
#X connect 7 0 3 2;
#X connect 8 0 9 0;
#X connect 9 0 3 0;
#X connect 9 0 11 0;
#X connect 10 0 13 1;
#X connect 12 0 13 0;
#X connect 13 0 14 0;
#X connect 15 0 7 0;
#X connect 16 0 0 0;
