#N canvas 291 119 708 563 10;
#X obj 88 487 dac~;
#X obj 62 453 *~;
#X obj 149 452 *~;
#X obj 60 415 hsl 128 15 0 1 0 0 empty empty empty -2 -8 0 10 -262144
-1 -1 2500 1;
#X obj 60 392 catch~ \$0-OUT1;
#X obj 171 392 catch~ \$0-OUT2;
#X obj 28 128 grainline \$0-OUT1;
#X obj 26 82 s MINDUR;
#X obj 86 82 s MAXDUR;
#X obj 146 82 s DENSITY;
#X obj 215 82 s RATIO;
#X floatatom 26 56 5 0 0 0 - - -;
#X floatatom 86 57 5 0 0 0 - - -;
#X floatatom 146 58 5 0 0 0 - - -;
#X floatatom 215 58 5 0 0 0 - - -;
#X obj 50 150 grainline \$0-OUT1;
#X obj 66 174 grainline \$0-OUT1;
#X obj 88 197 grainline \$0-OUT1;
#X obj 98 223 grainline \$0-OUT1;
#X obj 118 245 grainline \$0-OUT1;
#X obj 139 269 grainline \$0-OUT1;
#X obj 160 291 grainline \$0-OUT1;
#X obj 176 316 grainline \$0-OUT1;
#X obj 198 339 grainline \$0-OUT1;
#X obj 157 130 grainline \$0-OUT2;
#X obj 179 154 grainline \$0-OUT2;
#X obj 195 177 grainline \$0-OUT2;
#X obj 218 199 grainline \$0-OUT2;
#X obj 237 222 grainline \$0-OUT2;
#X obj 258 245 grainline \$0-OUT2;
#X obj 276 268 grainline \$0-OUT2;
#X obj 298 291 grainline \$0-OUT2;
#X obj 314 316 grainline \$0-OUT2;
#X obj 336 337 grainline \$0-OUT2;
#X obj 276 82 s FREEZE;
#X obj 276 57 tgl 15 0 empty empty empty 17 7 0 10 -262144 -1 -1 1
1;
#X connect 1 0 0 0;
#X connect 2 0 0 1;
#X connect 3 0 1 1;
#X connect 3 0 2 1;
#X connect 4 0 1 0;
#X connect 5 0 2 0;
#X connect 11 0 7 0;
#X connect 12 0 8 0;
#X connect 13 0 9 0;
#X connect 14 0 10 0;
#X connect 35 0 34 0;
