#N canvas 147 188 916 456 10;
#X obj 89 78 tgl 15 0 empty empty empty 17 7 0 10 -262144 -1 -1 0 1
;
#X obj 124 107 hid;
#X obj 124 189 change;
#X obj 124 213 +;
#X obj 124 133 route rel;
#X obj 124 304 print x;
#X msg 191 78 print;
#X obj 97 28 r deviceNum;
#X msg 124 78 open \$1;
#X obj 97 51 t b f;
#X obj 191 28 loadbang;
#X msg 64 28 4;
#X obj 124 240 clip 0 1000;
#X msg 522 163 \; pd dsp 1;
#X obj 522 109 loadbang;
#X obj 522 136 del 100;
#X text 596 136 Why we add a delay here? Answer : http://puredata.info/docs/faq/why-doesn-t-audio-work-when-i-start-pd-in-nogui-mode
;
#X obj 318 101 adc~;
#X obj 341 202 dac~;
#X obj 380 176 env~ 4096;
#X obj 380 201 print dB;
#X obj 341 176 *~;
#X obj 124 161 route rel_x;
#X obj 176 304 s vol;
#X obj 176 275 * 0.001;
#X obj 356 101 r vol;
#X connect 0 0 1 0;
#X connect 1 0 4 0;
#X connect 2 0 3 0;
#X connect 3 0 12 0;
#X connect 4 0 22 0;
#X connect 6 0 1 0;
#X connect 7 0 9 0;
#X connect 8 0 1 0;
#X connect 9 0 0 0;
#X connect 9 1 8 0;
#X connect 10 0 6 0;
#X connect 11 0 9 0;
#X connect 12 0 5 0;
#X connect 12 0 3 1;
#X connect 12 0 24 0;
#X connect 14 0 15 0;
#X connect 15 0 13 0;
#X connect 17 0 21 0;
#X connect 17 1 21 0;
#X connect 19 0 20 0;
#X connect 21 0 18 0;
#X connect 21 0 18 1;
#X connect 22 0 2 0;
#X connect 24 0 23 0;
#X connect 25 0 21 1;
