#N canvas 223 182 450 300 10;
#X obj 83 59 ctlin;
#X obj 169 61 notein;
#X obj 158 114 print note;
#X obj 158 90 pack f f f;
#X obj 67 89 pack f f f;
#X obj 67 113 print cc;
#X connect 0 0 4 0;
#X connect 0 1 4 1;
#X connect 0 2 4 2;
#X connect 1 0 3 0;
#X connect 1 1 3 1;
#X connect 1 2 3 2;
#X connect 3 0 2 0;
#X connect 4 0 5 0;
