#N canvas 93 68 1243 675 10;
#X obj 492 237 del;
#X obj 156 273 nbx 5 14 -1e+37 1e+37 0 1 empty empty empty 0 -8 0 10
-262144 -1 -1 40 256;
#X obj 79 273 nbx 5 14 0 1e+37 0 1 empty empty empty 0 -8 0 10 -262144
-1 -1 50 256;
#X obj 258 273 nbx 5 14 0 100 0 1 empty empty empty 0 -8 0 10 -262144
-1 -1 0 256;
#X floatatom 585 175 5 0 0 0 - - -;
#X obj 486 27 * 0.01;
#X obj 553 517 outlet;
#X obj 492 172 r \$0-TRIGGER;
#X obj 462 500 s \$0-TRIGGER;
#X obj 31 321 s \$0-TRIGGER;
#X obj 27 130 loadbang;
#X floatatom 553 498 15 0 0 0 - - -;
#X obj 27 150 bng 15 250 50 0 empty empty empty 17 7 0 10 -262144 -1
-1;
#X obj 31 174 t b b;
#X obj 462 478 del;
#X text 675 181 Wait for a random time before triggering. The bigger
the density the less we wait;
#X floatatom 492 217 5 0 0 0 - - -;
#X obj 553 477 int;
#X obj 586 437 tgl 15 0 empty empty empty 17 7 0 10 -262144 -1 -1 0
1;
#X obj 553 456 spigot;
#X obj 486 49 expr max(exp((1 - $f1) * 2.5) - 1 \, 0);
#X obj 586 392 r \$0-DENSITY;
#X obj 586 416 > 0;
#X obj 258 293 s \$0-DENSITY;
#X obj 486 5 r \$0-DENSITY;
#X text 667 21 Converts a density to a ratio;
#X obj 525 115 *;
#X obj 530 91 t b f;
#X text 679 454 Output the duration \, and wait for at least the same
amount of time before outputting again.;
#X text 678 310 Pick a random duration;
#X obj 135 129 inlet;
#X obj 212 129 inlet;
#X obj 294 128 inlet;
#X obj 74 227 f \$1;
#X obj 143 206 f \$2;
#X obj 258 206 f \$3;
#X obj 492 195 gr.rand/minMax 0;
#X obj 74 250 expr if ($f1 == 0 \, 50 \, $f1);
#X obj 143 228 expr if ($f1 == 0 \, 40 \, $f1);
#X obj 492 323 gr.rand/meanVar;
#X obj 535 297 r \$0-DURMEAN;
#X obj 579 275 r \$0-DURVAR;
#X obj 79 295 s \$0-DURMEAN;
#X obj 171 295 s \$0-DURVAR;
#X obj 530 70 r \$0-DURMEAN;
#X obj 492 350 max 1;
#X text 25 4 Helps you trigger randomized grains length at random times
\; \; Inlet 1 : mean grain duration \; Inlet 2 : variance of grain
duration \; Inlet 3 : density of grains \, between 0 and 100 \; \;
Oulet 1 : Outputs a float message giving a random grain duration \,
at random intervals of time.;
#X connect 0 0 39 0;
#X connect 1 0 43 0;
#X connect 2 0 42 0;
#X connect 3 0 23 0;
#X connect 4 0 36 2;
#X connect 5 0 20 0;
#X connect 7 0 36 0;
#X connect 10 0 12 0;
#X connect 11 0 6 0;
#X connect 12 0 13 0;
#X connect 13 0 9 0;
#X connect 13 1 33 0;
#X connect 13 1 34 0;
#X connect 13 1 35 0;
#X connect 14 0 8 0;
#X connect 16 0 0 0;
#X connect 17 0 11 0;
#X connect 18 0 19 1;
#X connect 19 0 17 0;
#X connect 20 0 26 0;
#X connect 21 0 22 0;
#X connect 22 0 18 0;
#X connect 24 0 5 0;
#X connect 26 0 4 0;
#X connect 27 0 26 0;
#X connect 27 1 26 1;
#X connect 30 0 2 0;
#X connect 31 0 1 0;
#X connect 32 0 3 0;
#X connect 33 0 37 0;
#X connect 34 0 38 0;
#X connect 35 0 3 0;
#X connect 36 0 16 0;
#X connect 37 0 2 0;
#X connect 38 0 1 0;
#X connect 39 0 45 0;
#X connect 40 0 39 1;
#X connect 41 0 39 2;
#X connect 44 0 27 0;
#X connect 45 0 14 0;
#X connect 45 0 19 0;
