#N canvas 383 245 614 338 10;
#X obj 39 55 inlet;
#X obj 39 164 outlet~;
#X text 33 28 input : length of the grain / output \, the envelope
signal;
#X obj 39 81 - 5;
#X msg 39 111 0 0 \, 1 5 0 \, 0 5 \$1;
#X obj 39 138 vline~;
#X connect 0 0 3 0;
#X connect 3 0 4 0;
#X connect 4 0 5 0;
#X connect 5 0 1 0;
