#N canvas 124 110 1034 576 10;
#X obj 257 429 dac~;
#N canvas 360 78 869 661 record 0;
#X obj 69 448 adc~;
#X obj 71 573 tabwrite~ \$0-IN;
#X obj 349 435 loadbang;
#X text 93 31 input : poll the write position in the array \, output
: the writing position in the array;
#X text 93 74 array size is 16s \, which is equivalent to 705600 samples
\, which is divisible by 64 \, so the array contains a round number
of blocks \, and we shouldn't loose data.;
#X obj 304 463 metro 16000;
#X msg 532 455 0 0 \, 705600 16000;
#X obj 502 44 table \$0-IN 705600;
#X obj 536 531 snapshot~;
#X obj 71 494 *~ 0.2;
#X obj 580 502 metro 10;
#X obj 532 502 vline~;
#X obj 536 576 s \$0-WRITE-POS;
#X msg 303 189 stop;
#X obj 298 242 r \$0-WRITE-POS;
#X obj 283 266 f;
#X obj 284 189 bng 15 250 50 0 empty empty empty 17 7 0 10 -262144
-1 -1;
#X msg 96 549 start \$1;
#X msg 464 455 705600 \$1;
#X obj 288 335 -;
#X msg 283 313 705600;
#X obj 283 290 t b f;
#X obj 288 359 sampToMs;
#X floatatom 536 552 10 0 0 0 - - -;
#X obj 284 142 r \$0-CTL-FREEZE;
#X obj 284 166 sel 0 1;
#X obj 580 478 loadbang;
#X obj 304 487 s \$0-WRITE-ZERO;
#X obj 532 432 r \$0-WRITE-ZERO;
#X obj 76 526 r \$0-WRITE-ZERO;
#X obj 322 435 del;
#X text 314 264 memorizes the position in samples when the time was
frozen;
#X obj 107 475 hsl 128 15 0 1 0 0 empty empty empty -2 -8 0 10 -262144
-1 -1 12700 1;
#X obj 104 455 r \$0-CTL-MICGAIN;
#X connect 0 0 9 0;
#X connect 0 1 9 0;
#X connect 2 0 5 0;
#X connect 5 0 27 0;
#X connect 6 0 11 0;
#X connect 8 0 23 0;
#X connect 9 0 1 0;
#X connect 10 0 8 0;
#X connect 11 0 8 0;
#X connect 13 0 1 0;
#X connect 13 0 11 0;
#X connect 13 0 5 0;
#X connect 13 0 30 0;
#X connect 14 0 15 1;
#X connect 15 0 17 0;
#X connect 15 0 21 0;
#X connect 16 0 15 0;
#X connect 17 0 1 0;
#X connect 18 0 11 0;
#X connect 19 0 22 0;
#X connect 20 0 19 0;
#X connect 21 0 20 0;
#X connect 21 1 19 1;
#X connect 22 0 18 0;
#X connect 22 0 30 0;
#X connect 23 0 12 0;
#X connect 24 0 25 0;
#X connect 25 0 16 0;
#X connect 25 1 13 0;
#X connect 26 0 10 0;
#X connect 28 0 6 0;
#X connect 29 0 1 0;
#X connect 30 0 5 0;
#X connect 32 0 9 1;
#X connect 33 0 32 0;
#X restore 391 37 pd record;
#X obj 257 49 samplerate~;
#X obj 257 73 s \$0-SAMPLERATE;
#X obj 257 10 loadbang;
#X obj 257 30 bng 15 250 50 0 empty empty empty 17 7 0 10 -262144 -1
-1;
#X obj 260 387 *~ 0.1;
#X obj 361 424 hsl 128 15 0 1 0 0 empty empty empty -2 -8 0 10 -262144
-1 -1 12700 1;
#X obj 231 197 grainline \$0;
#N canvas 506 162 820 431 midiCtl 1;
#X obj 88 128 s \$0-CTL-FREEZE;
#X obj 88 63 sel 0 127;
#X obj 88 108 tgl 15 0 empty empty empty 17 7 0 10 -262144 -1 -1 1
1;
#X floatatom 311 245 10 0 0 0 - - -;
#X floatatom 88 244 5 0 0 0 - - -;
#X obj 311 269 s \$0-CTL-PLAYCENTER;
#X obj 88 268 s \$0-CTL-PLAYSPREAD;
#X obj 88 87 bng 15 250 50 0 empty empty empty 17 7 0 10 -262144 -1
-1;
#X obj 311 222 mapVal 0 127 -1000 -6000;
#X obj 88 221 mapVal 0 127 0 2000;
#X floatatom 380 82 10 0 0 0 - - -;
#X obj 380 106 s \$0-CTL-MASTER;
#X floatatom 314 370 10 0 0 0 - - -;
#X floatatom 88 368 5 0 0 0 - - -;
#X obj 314 394 s \$0-CTL-PITCHCENTER;
#X obj 88 392 s \$0-CTL-PITCHSPREAD;
#X floatatom 203 83 10 0 0 0 - - -;
#X obj 204 60 mapVal 0 127 0 1;
#X obj 203 107 s \$0-CTL-MICGAIN;
#X obj 88 345 mapVal 0 127 0 1.5;
#X obj 314 347 mapVal 0 127 -1.2 2;
#X obj 88 37 ctlin \$1 1;
#X obj 203 36 ctlin \$2 1;
#X obj 380 35 ctlin \$3 1;
#X obj 88 197 ctlin \$4 1;
#X obj 311 198 ctlin \$5 1;
#X obj 88 321 ctlin \$6 1;
#X obj 314 323 ctlin \$7 1;
#X obj 273 14 loadbang;
#X msg 273 38 0.5;
#X obj 452 11 loadbang;
#X msg 452 35 0.5;
#X obj 161 173 loadbang;
#X msg 161 197 0;
#X obj 384 173 loadbang;
#X msg 384 197 -1000;
#X obj 163 297 loadbang;
#X msg 163 321 0;
#X obj 386 298 loadbang;
#X msg 386 322 0;
#X obj 381 59 mapVal 0 127 0 3;
#X connect 1 0 7 0;
#X connect 2 0 0 0;
#X connect 3 0 5 0;
#X connect 4 0 6 0;
#X connect 7 0 2 0;
#X connect 8 0 3 0;
#X connect 9 0 4 0;
#X connect 10 0 11 0;
#X connect 12 0 14 0;
#X connect 13 0 15 0;
#X connect 16 0 18 0;
#X connect 17 0 16 0;
#X connect 19 0 13 0;
#X connect 20 0 12 0;
#X connect 21 0 1 0;
#X connect 22 0 17 0;
#X connect 23 0 40 0;
#X connect 24 0 9 0;
#X connect 25 0 8 0;
#X connect 26 0 19 0;
#X connect 27 0 20 0;
#X connect 28 0 29 0;
#X connect 29 0 16 0;
#X connect 30 0 31 0;
#X connect 31 0 10 0;
#X connect 32 0 33 0;
#X connect 33 0 4 0;
#X connect 34 0 35 0;
#X connect 35 0 3 0;
#X connect 36 0 37 0;
#X connect 37 0 13 0;
#X connect 38 0 39 0;
#X connect 39 0 12 0;
#X connect 40 0 10 0;
#X restore 459 37 pd midiCtl;
#X obj 360 395 r \$0-CTL-MASTER;
#X obj 341 195 grainline \$0;
#X obj 460 192 grainline \$0;
#X obj 403 262 grainline \$0;
#X obj 522 259 grainline \$0;
#X obj 274 241 grainline \$0;
#X obj 251 217 grainline \$0;
#X obj 293 264 grainline \$0;
#X obj 384 239 grainline \$0;
#X obj 361 215 grainline \$0;
#X obj 503 236 grainline \$0;
#X obj 480 212 grainline \$0;
#X obj 602 233 grainline \$0;
#X obj 579 209 grainline \$0;
#X obj 559 189 grainline \$0;
#X obj 621 256 grainline \$0;
#X obj 701 233 grainline \$0;
#X obj 678 209 grainline \$0;
#X obj 658 189 grainline \$0;
#X obj 720 256 grainline \$0;
#X obj 808 232 grainline \$0;
#X obj 785 208 grainline \$0;
#X obj 765 188 grainline \$0;
#X obj 827 255 grainline \$0;
#X obj 692 329 grainline \$0;
#X obj 669 305 grainline \$0;
#X obj 649 285 grainline \$0;
#X obj 711 352 grainline \$0;
#X obj 791 329 grainline \$0;
#X obj 768 305 grainline \$0;
#X obj 748 285 grainline \$0;
#X obj 810 352 grainline \$0;
#X obj 898 328 grainline \$0;
#X obj 875 304 grainline \$0;
#X obj 855 284 grainline \$0;
#X obj 917 351 grainline \$0;
#X connect 2 0 3 0;
#X connect 4 0 5 0;
#X connect 5 0 2 0;
#X connect 6 0 0 0;
#X connect 6 0 0 1;
#X connect 7 0 6 1;
#X connect 8 0 6 0;
#X connect 10 0 7 0;
#X connect 11 0 6 0;
#X connect 12 0 6 0;
#X connect 13 0 6 0;
#X connect 14 0 6 0;
#X connect 15 0 6 0;
#X connect 16 0 6 0;
#X connect 17 0 6 0;
#X connect 18 0 6 0;
#X connect 19 0 6 0;
#X connect 20 0 6 0;
#X connect 21 0 6 0;
#X connect 22 0 6 0;
#X connect 23 0 6 0;
#X connect 24 0 6 0;
#X connect 25 0 6 0;
#X connect 26 0 6 0;
#X connect 27 0 6 0;
#X connect 28 0 6 0;
#X connect 29 0 6 0;
#X connect 30 0 6 0;
#X connect 31 0 6 0;
#X connect 32 0 6 0;
#X connect 33 0 6 0;
#X connect 34 0 6 0;
#X connect 35 0 6 0;
#X connect 36 0 6 0;
#X connect 37 0 6 0;
#X connect 38 0 6 0;
#X connect 39 0 6 0;
#X connect 40 0 6 0;
#X connect 41 0 6 0;
#X connect 42 0 6 0;
#X connect 43 0 6 0;
#X connect 44 0 6 0;
#X connect 45 0 6 0;
