#N canvas 361 189 450 300 10;
#X obj 35 33 ctlin;
#X floatatom 27 69 5 0 0 0 - - -;
#X floatatom 65 73 5 0 0 0 - - -;
#X floatatom 105 75 5 0 0 0 - - -;
#X obj 73 157 graincloud 23 14 2 15 3 16 4;
#X obj 74 183 graincloud 26 17 5 18 6 19 8;
#X obj 74 210 graincloud 29 20 9 21 12 22 13;
#X connect 0 0 1 0;
#X connect 0 1 2 0;
#X connect 0 2 3 0;
