#N canvas 478 255 450 300 10;
#X obj 85 71 inlet;
#X obj 85 146 outlet;
#X obj 138 96 samplerate~;
#X obj 138 69 loadbang;
#X obj 85 96 / 1000;
#X obj 85 121 *;
#X text 82 13 Converts a duration in milliseconds to the equivalent
number of samples.;
#X connect 0 0 4 0;
#X connect 2 0 5 1;
#X connect 3 0 2 0;
#X connect 4 0 5 0;
#X connect 5 0 1 0;
