#N canvas 232 164 539 372 10;
#X obj 73 151 bng 15 250 50 0 empty empty empty 17 7 0 10 -262144 -1
-1;
#X obj 73 171 random 1000;
#X obj 84 253 -;
#X obj 99 219 t b f;
#X obj 72 282 *;
#X obj 72 306 +;
#X obj 72 329 outlet;
#X obj 72 197 / 1000;
#X obj 73 128 r \$0-BANG;
#X obj 144 127 r \$0-MIN;
#X obj 212 126 r \$0-MAX;
#X obj 55 33 inlet;
#X obj 55 82 s \$0-BANG;
#X obj 131 32 inlet;
#X obj 265 31 inlet;
#X obj 158 56 f \$1;
#X obj 131 81 s \$0-MIN;
#X obj 193 31 loadbang;
#X obj 235 56 f \$2;
#X obj 235 81 s \$0-MAX;
#X connect 0 0 1 0;
#X connect 1 0 7 0;
#X connect 2 0 4 1;
#X connect 3 0 2 0;
#X connect 3 1 2 1;
#X connect 4 0 5 0;
#X connect 5 0 6 0;
#X connect 7 0 4 0;
#X connect 8 0 0 0;
#X connect 9 0 3 0;
#X connect 9 0 5 1;
#X connect 10 0 2 0;
#X connect 11 0 12 0;
#X connect 13 0 16 0;
#X connect 14 0 19 0;
#X connect 15 0 16 0;
#X connect 17 0 15 0;
#X connect 17 0 18 0;
#X connect 18 0 19 0;
