#N canvas 542 208 483 367 10;
#X obj 80 169 soundfiler;
#X obj 80 281 outlet;
#X obj 80 20 inlet;
#X obj 80 255 f;
#X obj 80 194 t b f;
#X obj 80 227 metro 100;
#X obj 268 141 table \$1 100;
#X msg 80 141 read -resize \$1 \$2;
#X obj 80 110 pack s s;
#X obj 125 87 symbol \$1;
#X obj 125 65 loadbang;
#X connect 0 0 4 0;
#X connect 2 0 8 0;
#X connect 3 0 1 0;
#X connect 4 0 5 0;
#X connect 4 1 3 1;
#X connect 5 0 3 0;
#X connect 7 0 0 0;
#X connect 8 0 7 0;
#X connect 9 0 8 1;
#X connect 10 0 9 0;
