#N canvas 89 141 751 469 10;
#X msg 164 317 \$1 0 \, \$2 \$3;
#X obj 164 294 pack f f f;
#X obj 165 76 inlet;
#X obj 239 193 +;
#X obj 165 146 t f f;
#X text 238 293 start (samples) \, end (samples) \, duration (ms);
#X obj 164 340 vline~;
#X obj 164 363 outlet~;
#X obj 192 221 gr.utils/msToS;
#X obj 165 247 gr.utils/msToS;
#X obj 217 76 inlet;
#X obj 270 76 inlet;
#X obj 258 146 * 1;
#X obj 270 121 t b f;
#X obj 252 169 t b f;
#X obj 120 246 metro;
#X obj 217 101 s \$0-DUR;
#X obj 260 247 r \$0-DUR;
#X obj 150 271 f;
#X obj 78 221 loadbang;
#X obj 135 221 r \$0-DUR;
#X connect 0 0 6 0;
#X connect 1 0 0 0;
#X connect 2 0 4 0;
#X connect 3 0 8 0;
#X connect 4 0 9 0;
#X connect 4 1 3 0;
#X connect 6 0 7 0;
#X connect 8 0 1 1;
#X connect 9 0 18 1;
#X connect 10 0 12 0;
#X connect 10 0 16 0;
#X connect 11 0 13 0;
#X connect 12 0 14 0;
#X connect 13 0 12 0;
#X connect 13 1 12 1;
#X connect 14 0 3 0;
#X connect 14 1 3 1;
#X connect 15 0 18 0;
#X connect 17 0 1 2;
#X connect 18 0 1 0;
#X connect 19 0 15 0;
#X connect 20 0 15 1;
