#N canvas 433 98 791 543 10;
#X obj 28 395 wrap~;
#X msg 28 326 \$1 0 \, \$2 \$3;
#X obj 28 303 pack f f f;
#X obj 42 128 inlet;
#X obj 57 228 +;
#X obj 30 175 t f f;
#X text 102 302 start (samples) \, end (samples) \, duration (ms);
#X obj 28 473 outlet~;
#X obj 452 140 loadbang;
#X obj 42 149 unpack f f f;
#X obj 452 204 expr size("$s1");
#X obj 452 228 s \$0-ARRAYSIZE;
#X obj 28 373 /~;
#X obj 74 349 r \$0-ARRAYSIZE;
#X obj 74 402 r \$0-ARRAYSIZE;
#X obj 28 418 *~;
#X obj 452 162 bng 15 250 50 0 empty empty empty 17 7 0 10 -262144
-1 -1;
#X obj 28 349 vline~;
#X obj 122 473 outlet~;
#X obj 72 206 *;
#X obj 28 449 tabread4~ \$1;
#X obj 452 182 symbol \$1;
#X text 40 39 Inlet : <start> \, <dur> \, <ratio> (start and dur both
in milliseconds).;
#X text 39 80 Outlet1 : the signal read from the array \, outlet2 :
the control signal for reading sound in the array.;
#X text 39 -4 This is a convenience object for reading from an array.
Argument \$1 is the name of the array to read from;
#X obj 57 250 gr.utils/msToS;
#X obj 30 276 gr.utils/msToS;
#X connect 0 0 15 0;
#X connect 1 0 17 0;
#X connect 2 0 1 0;
#X connect 3 0 9 0;
#X connect 4 0 25 0;
#X connect 5 0 26 0;
#X connect 5 1 4 0;
#X connect 8 0 16 0;
#X connect 9 0 5 0;
#X connect 9 1 2 2;
#X connect 9 1 19 0;
#X connect 9 2 19 1;
#X connect 10 0 11 0;
#X connect 12 0 0 0;
#X connect 13 0 12 1;
#X connect 14 0 15 1;
#X connect 15 0 18 0;
#X connect 15 0 20 0;
#X connect 16 0 21 0;
#X connect 17 0 12 0;
#X connect 19 0 4 1;
#X connect 20 0 7 0;
#X connect 21 0 10 0;
#X connect 25 0 2 1;
#X connect 26 0 2 0;
