#N canvas 223 120 516 460 10;
#X obj 56 259 soundfiler;
#X obj 56 286 outlet;
#X obj 56 110 inlet;
#X obj 244 231 table \$1 100;
#X msg 56 231 read -resize \$1 \$2;
#X obj 56 200 pack s s;
#X obj 101 177 symbol \$1;
#X obj 101 155 loadbang;
#X text 56 4 Read a sound file to the array given as first argument
\; \; Inlet 1 : file path \; \; Outlet 1 : the amount of samples read
\;;
#X connect 0 0 1 0;
#X connect 2 0 5 0;
#X connect 4 0 0 0;
#X connect 5 0 4 0;
#X connect 6 0 5 1;
#X connect 7 0 6 0;
