#N canvas 192 82 958 631 10;
#X obj 42 458 wrap~;
#X msg 42 389 \$1 0 \, \$2 \$3;
#X obj 42 366 pack f f f;
#X obj 44 152 inlet;
#X obj 71 291 +;
#X obj 44 199 t f f;
#X text 116 365 start (samples) \, end (samples) \, duration (ms);
#X obj 42 504 outlet~;
#X obj 466 136 loadbang;
#X obj 466 228 expr size("$s1");
#X obj 466 299 s \$0-ARRAYSIZE;
#X obj 42 436 /~;
#X obj 88 412 r \$0-ARRAYSIZE;
#X obj 88 465 r \$0-ARRAYSIZE;
#X obj 42 481 *~;
#X obj 466 186 bng 15 250 50 0 empty empty empty 17 7 0 10 -262144
-1 -1;
#X obj 42 412 vline~;
#X obj 89 244 *;
#X obj 466 206 symbol \$1;
#X text 39 -4 This is a convenience object for reading from an array.
Argument \$1 is the name of the array to read from;
#X obj 71 313 gr.utils/msToS;
#X obj 44 339 gr.utils/msToS;
#X obj 98 152 inlet;
#X obj 151 152 inlet;
#X obj 108 177 s \$0-DUR;
#X obj 138 339 r \$0-DUR;
#X obj 106 218 t b f;
#X obj 80 267 t b f;
#X text 40 39 Inlet 1 : start position (ms) \; Inlet 2 : duration (ms)
\; Inlet 3 : ratio;
#X floatatom 466 276 15 0 0 0 - - -;
#X text 40 92 Outlet 1 : the control signal to read from tabread.;
#X obj 466 163 metro 100;
#X obj 466 252 change;
#X connect 0 0 14 0;
#X connect 1 0 16 0;
#X connect 2 0 1 0;
#X connect 3 0 5 0;
#X connect 4 0 20 0;
#X connect 5 0 21 0;
#X connect 5 1 4 0;
#X connect 8 0 31 0;
#X connect 9 0 32 0;
#X connect 11 0 0 0;
#X connect 12 0 11 1;
#X connect 13 0 14 1;
#X connect 14 0 7 0;
#X connect 15 0 18 0;
#X connect 16 0 11 0;
#X connect 17 0 27 0;
#X connect 18 0 9 0;
#X connect 20 0 2 1;
#X connect 21 0 2 0;
#X connect 22 0 24 0;
#X connect 22 0 17 0;
#X connect 23 0 26 0;
#X connect 25 0 2 2;
#X connect 26 0 17 0;
#X connect 26 1 17 1;
#X connect 27 0 4 0;
#X connect 27 1 4 1;
#X connect 29 0 10 0;
#X connect 31 0 15 0;
#X connect 32 0 29 0;
