#N canvas 317 248 714 449 10;
#X obj 108 166 f \$1;
#X obj 149 166 f \$2;
#X obj 191 166 f \$3;
#X obj 232 166 f \$4;
#X obj 119 263 -;
#X obj 68 126 inlet;
#X obj 68 263 -;
#X obj 104 288 /;
#X obj 170 263 -;
#X obj 144 313 *;
#X obj 190 338 +;
#X obj 190 363 outlet;
#X text 51 4 Value mapping : <inMin> <inMax> <outMin> <outMax>;
#X obj 68 197 min;
#X obj 68 220 max;
#X obj 155 30 loadbang;
#X obj 155 69 t b b;
#X obj 108 126 inlet;
#X obj 149 126 inlet;
#X obj 191 126 inlet;
#X obj 232 126 inlet;
#X connect 0 0 4 1;
#X connect 0 0 6 1;
#X connect 0 0 14 1;
#X connect 1 0 4 0;
#X connect 1 0 13 1;
#X connect 2 0 8 1;
#X connect 2 0 10 1;
#X connect 3 0 8 0;
#X connect 4 0 7 1;
#X connect 5 0 13 0;
#X connect 6 0 7 0;
#X connect 7 0 9 0;
#X connect 8 0 9 1;
#X connect 9 0 10 0;
#X connect 10 0 11 0;
#X connect 13 0 14 0;
#X connect 14 0 6 0;
#X connect 15 0 16 0;
#X connect 16 0 1 0;
#X connect 16 0 3 0;
#X connect 16 1 2 0;
#X connect 16 1 0 0;
#X connect 17 0 0 0;
#X connect 18 0 1 0;
#X connect 19 0 2 0;
#X connect 20 0 3 0;
