#N canvas 331 163 692 446 10;
#X obj 111 180 hid;
#X obj 57 303 change;
#X obj 57 327 +;
#X obj 111 234 route rel_x rel_y;
#X obj 172 302 change;
#X obj 172 326 +;
#X obj 57 354 clip 0 1000;
#X obj 172 353 clip 0 1000;
#X obj 57 406 outlet;
#X obj 172 405 outlet;
#X floatatom 57 381 10 0 0 0 - - -;
#X floatatom 172 381 10 0 0 0 - - -;
#X obj 111 206 route rel key;
#X obj 233 234 route btn_0 btn_1;
#X obj 286 324 tgl 15 0 empty empty empty 17 7 0 10 -262144 -1 -1 0
1;
#X obj 369 323 tgl 15 0 empty empty empty 17 7 0 10 -262144 -1 -1 0
1;
#X obj 286 404 outlet;
#X obj 369 404 outlet;
#X msg 74 151 1;
#X obj 185 88 inlet;
#X obj 86 88 loadbang;
#X obj 84 124 t b b;
#X msg 113 151 open 0x1a7c 0x0068;
#X text 53 5 Convenience object to use the mouse as a controler. Just
replace vendor ID and device ID in the "open" message below. Then when
you create this object \, your mouse will be automatically opened.
Outlets are X in [0 \, 1000] \; Y in [0 \, 1000] \; left click (0 or
1) \; right click (0 or 1).;
#X connect 0 0 12 0;
#X connect 1 0 2 0;
#X connect 2 0 6 0;
#X connect 3 0 1 0;
#X connect 3 1 4 0;
#X connect 4 0 5 0;
#X connect 5 0 7 0;
#X connect 6 0 2 1;
#X connect 6 0 10 0;
#X connect 7 0 5 1;
#X connect 7 0 11 0;
#X connect 10 0 8 0;
#X connect 11 0 9 0;
#X connect 12 0 3 0;
#X connect 12 1 13 0;
#X connect 13 0 14 0;
#X connect 13 1 15 0;
#X connect 14 0 16 0;
#X connect 15 0 17 0;
#X connect 18 0 0 0;
#X connect 19 0 0 0;
#X connect 20 0 21 0;
#X connect 21 0 18 0;
#X connect 21 1 22 0;
#X connect 22 0 0 0;
