#N canvas 220 160 777 473 10;
#X obj 55 88 inlet;
#X obj 55 252 s \$0-BANG;
#X obj 131 87 inlet;
#X obj 257 86 inlet;
#X obj 158 111 f \$1;
#X obj 193 86 loadbang;
#X obj 212 111 f \$2;
#X text 52 11 Bang the left inlet to output a random number between
MIN and MAX.;
#X text 51 49 Inlet 2 is min \, inlet 3 is max.;
#X obj 131 251 s \$0-MIN;
#X obj 235 250 s \$0-MAX;
#X obj 55 325 bng 15 250 50 0 empty empty empty 17 7 0 10 -262144 -1
-1;
#X obj 55 396 outlet;
#X obj 55 302 r \$0-BANG;
#X obj 126 301 r \$0-MIN;
#X obj 194 301 r \$0-MAX;
#X obj 55 348 random 1000;
#X obj 55 372 gr.utils/mapVal 0 1000;
#X obj 131 176 f;
#X obj 235 177 f;
#X obj 131 203 -;
#X obj 235 203 +;
#X obj 234 138 t b f;
#X floatatom 131 230 10 0 0 0 - - -;
#X floatatom 235 229 10 0 0 0 - - -;
#X connect 0 0 1 0;
#X connect 2 0 18 0;
#X connect 3 0 22 0;
#X connect 4 0 18 0;
#X connect 5 0 4 0;
#X connect 5 0 6 0;
#X connect 6 0 22 0;
#X connect 11 0 16 0;
#X connect 13 0 11 0;
#X connect 14 0 17 3;
#X connect 15 0 17 4;
#X connect 16 0 17 0;
#X connect 17 0 12 0;
#X connect 18 0 20 0;
#X connect 18 0 21 0;
#X connect 19 0 20 1;
#X connect 19 0 21 1;
#X connect 20 0 23 0;
#X connect 21 0 24 0;
#X connect 22 0 18 0;
#X connect 22 1 19 0;
#X connect 23 0 9 0;
#X connect 24 0 10 0;
