#N canvas 66 92 1243 675 10;
#X obj 497 284 del;
#X obj 156 239 nbx 5 14 -1e+37 1e+37 0 1 empty empty empty 0 -8 0 10
-262144 -1 -1 100 256;
#X obj 79 239 nbx 5 14 -1e+37 1e+37 0 1 empty empty empty 0 -8 0 10
-262144 -1 -1 10 256;
#X obj 258 239 nbx 5 14 0 100 0 1 empty empty empty 0 -8 0 10 -262144
-1 -1 0 256;
#X floatatom 590 222 5 0 0 0 - - -;
#X obj 491 74 * 0.01;
#X obj 558 564 outlet;
#X obj 497 219 r \$0-TRIGGER;
#X obj 467 547 s \$0-TRIGGER;
#X obj 31 379 s \$0-TRIGGER;
#X obj 27 96 loadbang;
#X obj 537 348 r \$0-MINDUR;
#X obj 578 326 r \$0-MAXDUR;
#X obj 79 356 s \$0-MINDUR;
#X obj 191 312 s \$0-MAXDUR;
#X floatatom 558 545 15 0 0 0 - - -;
#X obj 27 116 bng 15 250 50 0 empty empty empty 17 7 0 10 -262144 -1
-1;
#X obj 31 140 t b b;
#X obj 467 525 del;
#X text 680 228 Wait for a random time before triggering. The bigger
the density the less we wait;
#X floatatom 497 264 5 0 0 0 - - -;
#X obj 558 524 int;
#X obj 591 484 tgl 15 0 empty empty empty 17 7 0 10 -262144 -1 -1 0
1;
#X obj 558 503 spigot;
#X obj 491 96 expr max(exp((1 - $f1) * 2.5) - 1 \, 0);
#X obj 591 439 r \$0-DENSITY;
#X obj 591 463 > 0;
#X obj 258 290 s \$0-DENSITY;
#X obj 491 52 r \$0-DENSITY;
#X text 672 68 Converts a density to a ratio;
#X obj 535 117 r \$0-MEDDUR;
#X obj 144 292 +;
#X obj 144 313 * 0.5;
#X obj 144 269 t b f;
#X obj 144 334 s \$0-MEDDUR;
#X obj 530 162 *;
#X obj 535 138 t b f;
#X text 684 501 Output the duration \, and wait for at least the same
amount of time before outputting again.;
#X text 683 357 Pick a random duration;
#X obj 135 95 inlet;
#X obj 212 95 inlet;
#X obj 294 94 inlet;
#X text 31 -22 A helper to trigger grains. This will output a random
grain duration between MIN and MAX in milliseconds. This also waits
for the previous grain to be over before triggering a new one.;
#X obj 74 193 f \$1;
#X obj 143 172 f \$2;
#X obj 258 172 f \$3;
#X obj 143 194 expr if ($f1 == 0 \, 100 \, $f1);
#X obj 74 216 expr if ($f1 == 0 \, 10 \, $f1);
#X text 31 44 Inlets 1 is minimum grain duration \, inlet 2 maximum
\, inlet 3 is density of grains \, between 0 and 100;
#X obj 497 242 gr.rand/minMax 0;
#X obj 497 370 gr.rand/minMax;
#X connect 0 0 50 0;
#X connect 1 0 14 0;
#X connect 1 0 33 0;
#X connect 2 0 13 0;
#X connect 2 0 31 0;
#X connect 3 0 27 0;
#X connect 4 0 49 2;
#X connect 5 0 24 0;
#X connect 7 0 49 0;
#X connect 10 0 16 0;
#X connect 11 0 50 1;
#X connect 12 0 50 2;
#X connect 15 0 6 0;
#X connect 16 0 17 0;
#X connect 17 0 9 0;
#X connect 17 1 43 0;
#X connect 17 1 44 0;
#X connect 17 1 45 0;
#X connect 18 0 8 0;
#X connect 20 0 0 0;
#X connect 21 0 15 0;
#X connect 22 0 23 1;
#X connect 23 0 21 0;
#X connect 24 0 35 0;
#X connect 25 0 26 0;
#X connect 26 0 22 0;
#X connect 28 0 5 0;
#X connect 30 0 36 0;
#X connect 31 0 32 0;
#X connect 32 0 34 0;
#X connect 33 0 31 0;
#X connect 33 1 31 1;
#X connect 35 0 4 0;
#X connect 36 0 35 0;
#X connect 36 1 35 1;
#X connect 39 0 2 0;
#X connect 40 0 1 0;
#X connect 41 0 3 0;
#X connect 43 0 47 0;
#X connect 44 0 46 0;
#X connect 45 0 3 0;
#X connect 46 0 1 0;
#X connect 47 0 2 0;
#X connect 49 0 20 0;
#X connect 50 0 23 0;
#X connect 50 0 18 0;
