#N canvas 201 85 887 576 10;
#X obj 54 145 inlet;
#X obj 54 207 s \$0-BANG;
#X obj 130 144 inlet;
#X obj 256 143 inlet;
#X obj 157 168 f \$1;
#X obj 192 143 loadbang;
#X obj 211 168 f \$2;
#X obj 50 430 bng 15 250 50 0 empty empty empty 17 7 0 10 -262144 -1
-1;
#X obj 50 521 outlet;
#X obj 50 407 r \$0-BANG;
#X obj 50 477 maxlib/scale 0 1;
#X obj 50 453 linear;
#X obj 134 365 f;
#X obj 238 366 f;
#X obj 134 392 -;
#X obj 238 392 +;
#X obj 211 340 t b f;
#X floatatom 134 419 10 0 0 0 - - -;
#X floatatom 238 418 10 0 0 0 - - -;
#X floatatom 134 318 5 0 0 0 - - -;
#X floatatom 211 318 5 0 0 0 - - -;
#X floatatom 50 499 5 0 0 0 - - -;
#X obj 130 206 s \$0-MEAN;
#X obj 233 206 s \$0-VAR;
#X obj 134 295 r \$0-MEAN;
#X obj 211 295 r \$0-VAR;
#X text 52 11 Gives random numbers distributed linearly between [MEAN
- VAR \, MEAN + VAR] \; \; Inlet 1 : bang to get a number \; Inlet
2 : MEAN \; Inlet 3 : VAR \; Outlet 1 : the random numbers;
#X connect 0 0 1 0;
#X connect 2 0 22 0;
#X connect 3 0 23 0;
#X connect 4 0 22 0;
#X connect 5 0 4 0;
#X connect 5 0 6 0;
#X connect 6 0 23 0;
#X connect 7 0 11 0;
#X connect 9 0 7 0;
#X connect 10 0 21 0;
#X connect 11 0 10 0;
#X connect 12 0 14 0;
#X connect 12 0 15 0;
#X connect 13 0 14 1;
#X connect 13 0 15 1;
#X connect 14 0 17 0;
#X connect 15 0 18 0;
#X connect 16 0 12 0;
#X connect 16 1 13 0;
#X connect 17 0 10 3;
#X connect 18 0 10 4;
#X connect 19 0 12 0;
#X connect 20 0 16 0;
#X connect 21 0 8 0;
#X connect 24 0 19 0;
#X connect 25 0 20 0;
