#N canvas 324 163 777 473 10;
#X obj 55 316 bng 15 250 50 0 empty empty empty 17 7 0 10 -262144 -1
-1;
#X obj 55 414 outlet;
#X obj 55 293 r \$0-BANG;
#X obj 129 232 r \$0-MIN;
#X obj 194 232 r \$0-MAX;
#X obj 55 153 inlet;
#X obj 55 202 s \$0-BANG;
#X obj 131 152 inlet;
#X obj 265 151 inlet;
#X obj 158 176 f \$1;
#X obj 131 201 s \$0-MIN;
#X obj 193 151 loadbang;
#X obj 235 176 f \$2;
#X obj 235 201 s \$0-MAX;
#X floatatom 194 338 5 0 0 0 - - -;
#X obj 55 338 linear;
#X obj 55 364 maxlib/scale 0 1;
#X floatatom 55 390 5 0 0 0 - - -;
#X floatatom 129 258 5 0 0 0 - - -;
#X floatatom 194 258 5 0 0 0 - - -;
#X obj 194 315 max;
#X obj 194 283 t b f;
#X text 239 283 If MIN is greater than MAX \, we set MAX = MIN;
#X text 52 11 Returns a random float number between a minimum and a
maximum \; \; Inlet 1 : send bang to get a number \; Inlet 2 : Minimum
\; Inlet 3 : Maximum \; : Outlet 1 : random number;
#X connect 0 0 15 0;
#X connect 2 0 0 0;
#X connect 3 0 18 0;
#X connect 4 0 19 0;
#X connect 5 0 6 0;
#X connect 7 0 10 0;
#X connect 8 0 13 0;
#X connect 9 0 10 0;
#X connect 11 0 9 0;
#X connect 11 0 12 0;
#X connect 12 0 13 0;
#X connect 14 0 16 4;
#X connect 15 0 16 0;
#X connect 16 0 17 0;
#X connect 17 0 1 0;
#X connect 18 0 16 3;
#X connect 18 0 20 0;
#X connect 19 0 21 0;
#X connect 20 0 14 0;
#X connect 21 0 20 0;
#X connect 21 1 20 1;
